<?xml version="1.0" encoding="iso-8859-1"?>
<!-- Generator: Adobe Illustrator 17.1.0, SVG Export Plug-In . SVG Version: 6.00 Build 0)  -->
<!DOCTYPE svg PUBLIC "-//W3C//DTD SVG 1.1//EN" "http://www.w3.org/Graphics/SVG/1.1/DTD/svg11.dtd">
<svg version="1.1" id="Capa_1" xmlns="http://www.w3.org/2000/svg" xmlns:xlink="http://www.w3.org/1999/xlink" x="0px" y="0px"
	 viewBox="0 0 414.092 414.092" style="enable-background:new 0 0 414.092 414.092;" xml:space="preserve">
<g>
	<polygon points="414.092,207.046 287.75,117.506 287.75,169.526 246.395,169.526 246.395,244.565 287.75,244.565 287.75,296.586 	
		"/>
	<path d="M116.528,207.046c0-32.127-26.137-58.265-58.264-58.265S0,174.919,0,207.046s26.137,58.265,58.264,58.265
		S116.528,239.173,116.528,207.046z"/>
	<path d="M59.862,47.832h-5v62.726h5c53.204,0,96.488,43.284,96.488,96.488s-43.285,96.488-96.488,96.488h-5v62.726h5
		c87.791,0,159.213-71.423,159.213-159.214S147.652,47.832,59.862,47.832z"/>
</g>
<g>
</g>
<g>
</g>
<g>
</g>
<g>
</g>
<g>
</g>
<g>
</g>
<g>
</g>
<g>
</g>
<g>
</g>
<g>
</g>
<g>
</g>
<g>
</g>
<g>
</g>
<g>
</g>
<g>
</g>
</svg>
